<?xml version="1.0" encoding="UTF-8" standalone="no"?>
<!-- Created with Inkscape (http://www.inkscape.org/) -->

<svg
   xmlns:dc="http://purl.org/dc/elements/1.1/"
   xmlns:cc="http://creativecommons.org/ns#"
   xmlns:rdf="http://www.w3.org/1999/02/22-rdf-syntax-ns#"
   xmlns:svg="http://www.w3.org/2000/svg"
   xmlns="http://www.w3.org/2000/svg"
   xmlns:xlink="http://www.w3.org/1999/xlink"
   xmlns:sodipodi="http://sodipodi.sourceforge.net/DTD/sodipodi-0.dtd"
   xmlns:inkscape="http://www.inkscape.org/namespaces/inkscape"
   width="200mm"
   height="227mm"
   viewBox="0 0 708.66141 804.33069"
   id="svg2"
   version="1.1"
   inkscape:version="0.91 r13725"
   sodipodi:docname="survloop-logo.svg"
   inkscape:export-filename="/Users/mo/web/sites/Code/OpenPolice/vendor/rockhopsoft/survloop/src/Uploads/survloop-logo.png"
   inkscape:export-xdpi="192.85001"
   inkscape:export-ydpi="192.85001">
  <defs
     id="defs4" />
  <sodipodi:namedview
     id="base"
     pagecolor="#ffffff"
     bordercolor="#666666"
     borderopacity="1.0"
     inkscape:pageopacity="0.0"
     inkscape:pageshadow="2"
     inkscape:zoom="0.75514797"
     inkscape:cx="143.71774"
     inkscape:cy="418.22312"
     inkscape:document-units="px"
     inkscape:current-layer="layer2"
     showgrid="false"
     inkscape:window-width="1440"
     inkscape:window-height="851"
     inkscape:window-x="0"
     inkscape:window-y="1"
     inkscape:window-maximized="1" />
  <metadata
     id="metadata7">
    <rdf:RDF>
      <cc:Work
         rdf:about="">
        <dc:format>image/svg+xml</dc:format>
        <dc:type
           rdf:resource="http://purl.org/dc/dcmitype/StillImage" />
        <dc:title />
      </cc:Work>
    </rdf:RDF>
  </metadata>
  <g
     transform="translate(0,-248.03151)"
     style="display:inline"
     inkscape:label="Layer 2 copy"
     id="g4157"
     inkscape:groupmode="layer" />
  <g
     inkscape:label="Layer 1"
     inkscape:groupmode="layer"
     id="layer1"
     style="display:none"
     transform="translate(0,-248.03151)">
    <image
       sodipodi:absref="/Users/mo/web/sites/Code/OpenPolice/vendor/rockhopsoft/survloop/src/Uploads/survloop.png"
       xlink:href="survloop.png"
       y="58.924709"
       x="-3.8392856"
       id="image3414"
       preserveAspectRatio="none"
       height="817.0202"
       width="753.39288" />
  </g>
  <g
     style="display:inline"
     id="g4286"
     inkscape:groupmode="layer"
     inkscape:label="Layer 1 copy 1"
     transform="translate(0,-248.03151)">
    <path
       sodipodi:nodetypes="ccssscssscssscc"
       inkscape:connector-curvature="0"
       id="path4290"
       d="M 382.56811,603.80663 498.77574,537.2494 c 0,0 39.80593,-116.63565 45.15619,-130.76033 5.35026,-14.12468 17.97687,-19.04692 32.52958,-14.98072 14.5527,4.06619 22.6851,18.19088 18.40489,31.88754 -4.28021,13.69667 -25.03922,72.76352 -25.03922,72.76352 0,0 74.68962,-43.4441 84.5341,-48.58035 9.84448,-5.13625 27.82135,-0.21401 33.59963,12.19859 5.77828,12.4126 4.49421,27.60734 -10.48651,36.80978 -14.98073,9.20245 -79.18384,45.58421 -79.18384,45.58421 0,0 56.07072,11.34255 71.47946,14.3387 15.40875,2.99614 25.21171,15.49858 21.18703,33.1716 -4.18742,18.38766 -21.82906,22.6851 -35.52572,19.90297 -13.69667,-2.78214 -129.26226,-25.68125 -129.26226,-25.68125 l -116.42164,66.98525"
       style="fill:none;fill-rule:evenodd;stroke:#416cbf;stroke-width:27;stroke-linecap:round;stroke-linejoin:round;stroke-miterlimit:4;stroke-dasharray:none;stroke-opacity:0.94117647" />
  </g>
  <g
     id="g4260"
     inkscape:groupmode="layer"
     inkscape:label="Layer 1 copy"
     style="display:inline"
     transform="translate(0,-248.03151)">
    <path
       sodipodi:nodetypes="ccssscssscssscc"
       inkscape:connector-curvature="0"
       id="path4264"
       d="m 409.86681,650.81177 115.70878,67.42075 c 0,0 120.92487,-23.78157 135.8336,-26.20265 14.90873,-2.42107 25.48039,6.05831 29.22765,20.69639 3.74726,14.63807 -4.42627,28.739 -18.42967,31.87323 -14.00342,3.13424 -75.54236,14.65761 -75.54236,14.65761 0,0 74.946,43.00031 84.31325,48.96265 9.36724,5.96235 14.08345,23.99437 6.2171,35.20069 -7.86636,11.20632 -21.67082,17.68442 -37.12634,9.30387 -15.45553,-8.38056 -79.04502,-45.82451 -79.04502,-45.82451 0,0 18.18402,54.23948 23.28588,69.08458 5.10187,14.84512 -0.8318,29.58284 -18.15222,34.92481 -18.0208,5.55798 -30.55643,-7.57797 -34.98843,-20.83301 -4.432,-13.25506 -42.32518,-124.80721 -42.32518,-124.80721 L 382.65738,697.87666"
       style="fill:none;fill-rule:evenodd;stroke:#416cbf;stroke-width:27;stroke-linecap:round;stroke-linejoin:round;stroke-miterlimit:4;stroke-dasharray:none;stroke-opacity:0.94117647" />
  </g>
  <g
     inkscape:label="Layer 1 copy copy"
     inkscape:groupmode="layer"
     id="g4266"
     style="display:inline"
     transform="translate(0,-248.03151)">
    <path
       style="fill:none;fill-rule:evenodd;stroke:#416cbf;stroke-width:27;stroke-linecap:round;stroke-linejoin:round;stroke-miterlimit:4;stroke-dasharray:none;stroke-opacity:0.94117647"
       d="m 383.02962,698.27994 -0.80549,133.91575 c 0,0 80.86928,92.99755 90.3966,104.71771 9.5273,11.72018 7.44259,25.11098 -3.38215,35.65332 -10.82473,10.5423 -27.12316,10.4812 -36.81774,-0.099 -9.69458,-10.57991 -50.34702,-58.19513 -50.34702,-58.19513 0,0 0.0583,86.40561 -0.44417,97.49801 -0.50244,11.0924 -13.78708,24.1659 -27.42273,22.9289 -13.63566,-1.237 -26.13037,-9.9783 -26.56469,-27.5544 -0.43432,-17.57608 0.34812,-91.36669 0.34812,-91.36669 0,0 -37.96768,42.79059 -48.297,54.61051 -10.32933,11.82 -26.0639,14.0182 -39.32533,1.6623 -13.79769,-12.85547 -8.65409,-30.26922 0.63037,-40.71614 9.28446,-10.44693 87.12451,-98.88166 87.12451,-98.88166 l 0.54279,-134.31576"
       id="path4270"
       inkscape:connector-curvature="0"
       sodipodi:nodetypes="ccssscssscssscc" />
  </g>
  <g
     id="g4272"
     inkscape:groupmode="layer"
     inkscape:label="Layer 1 copy copy copy"
     style="display:inline"
     transform="translate(0,-248.03151)">
    <path
       sodipodi:nodetypes="ccssscssscssscc"
       inkscape:connector-curvature="0"
       id="path4276"
       d="m 328.15395,603.97266 0.45679,-133.91739 c 0,0 -81.11115,-92.78666 -90.66896,-104.48197 -9.55778,-11.69534 -7.50795,-25.09151 3.28931,-35.66199 10.79724,-10.57045 27.09577,-10.55179 36.81786,0.003 9.7221,10.5546 50.49839,58.0638 50.49839,58.0638 0,0 -0.28329,-86.40515 0.1903,-97.49887 0.47355,-11.0937 13.72411,-24.2017 27.36293,-23.00022 13.63883,1.20149 26.15627,9.91026 26.63635,27.48513 0.48008,17.57489 -0.11022,91.36733 -0.11022,91.36733 0,0 37.85613,-42.88931 48.15465,-54.73612 10.29851,-11.84681 26.02729,-14.086 39.32087,-1.76469 13.8311,12.81953 8.73287,30.24661 -0.52436,40.71768 -9.25723,10.47106 -86.86674,99.10818 -86.86674,99.10818 l -0.19305,134.31672"
       style="fill:none;fill-rule:evenodd;stroke:#416cbf;stroke-width:27;stroke-linecap:round;stroke-linejoin:round;stroke-miterlimit:4;stroke-dasharray:none;stroke-opacity:0.94117647" />
  </g>
  <g
     style="display:inline"
     inkscape:label="Layer 1 copy copy copy copy"
     inkscape:groupmode="layer"
     id="g4278"
     transform="translate(0,-248.03151)">
    <path
       style="fill:none;fill-rule:evenodd;stroke:#416cbf;stroke-width:27;stroke-linecap:round;stroke-linejoin:round;stroke-miterlimit:4;stroke-dasharray:none;stroke-opacity:0.94117647"
       d="m 328.1538,699.10648 -116.47076,66.09568 c 0,0 -40.26833,116.47681 -45.67457,130.58016 -5.40627,14.10334 -18.0523,18.97546 -32.58877,14.85156 -14.53645,-4.1239 -22.61274,-18.28073 -18.27821,-31.96033 4.3345,-13.67957 25.32768,-72.66361 25.32768,-72.66361 0,0 -74.86137,43.14749 -84.726169,48.24462 -9.864759,5.09715 -27.821976,0.10364 -33.55096,-12.33179 -5.728988,-12.43543 -4.384643,-27.62496 10.632454,-36.7679 15.017115,-9.14294 79.364055,-45.26971 79.364055,-45.26971 0,0 -56.025284,-11.5649 -71.42201,-14.62216 -15.396743,-3.05725 -25.150029,-15.59848 -21.055269,-33.25538 4.26033,-18.3709 21.918874,-22.59832 35.604407,-19.76186 13.685541,2.83647 129.159372,26.19386 129.159372,26.19386 l 116.68644,-66.52289"
       id="path4280"
       inkscape:connector-curvature="0"
       sodipodi:nodetypes="ccssscssscssscc" />
  </g>
  <g
     id="g4282"
     inkscape:groupmode="layer"
     inkscape:label="Layer 1 copy copy copy copy copy"
     style="display:inline"
     transform="translate(0,-248.03151)">
    <path
       sodipodi:nodetypes="ccssscssscssscc"
       inkscape:connector-curvature="0"
       id="path4284"
       d="M 300.33597,650.84701 184.70344,583.29559 c 0,0 -120.951647,23.64494 -135.863103,26.04918 -14.911463,2.40421 -25.473533,-6.08709 -29.204257,-20.7294 -3.730712,-14.6423 4.458733,-28.73397 18.465701,-31.85237 14.006927,-3.11842 75.558849,-14.57227 75.558849,-14.57227 0,0 -74.897398,-43.08492 -84.257887,-49.05787 -9.360486,-5.97293 -14.056337,-24.01027 -6.177318,-35.20769 7.879015,-11.19743 21.69079,-17.65993 37.13683,-9.26192 15.44605,8.398 78.993195,45.91378 78.993195,45.91378 0,0 -18.12275,-54.25999 -23.20782,-69.11085 -5.08509,-14.85087 0.86522,-29.58189 18.19166,-34.90427 18.02706,-5.53763 30.54785,7.61247 34.96486,20.87254 4.41701,13.26007 42.18415,124.85496 42.18415,124.85496 l 116.11029,67.52349"
       style="fill:none;fill-rule:evenodd;stroke:#416cbf;stroke-width:27;stroke-linecap:round;stroke-linejoin:round;stroke-miterlimit:4;stroke-dasharray:none;stroke-opacity:0.94117647" />
  </g>
  <g
     inkscape:groupmode="layer"
     id="layer2"
     inkscape:label="Layer 2"
     style="display:inline"
     transform="translate(0,-248.03151)" />
  <g
     inkscape:groupmode="layer"
     id="layer3"
     inkscape:label="Layer 3"
     transform="translate(0,-248.03151)"
     style="display:none" />
</svg>
